# xmcd
#
# Track frame offsets: 
#        150
#        14733
#        24328
#        35758
#        49902
#        63099
#        82410
#        98426
#        109196
#        121231
#        132393
#        145634
#
# Disc length: 2091 seconds
#
# Revision: 0
# Processed by: cddbd v1.5.2PL0 Copyright (c) Steve Scherf et al.
# Submitted via: ExactAudioCopy v0.99pb5
#
DISCID=a208290c
DTITLE=Rex Holman - Here In The Land Of Victory
DYEAR=1970
DGENRE=Folk
TTITLE0=Here In The Land Of Victory
TTITLE1=Pink Lemonade
TTITLE2=Rowin'
TTITLE3=Today Is Almost Here
TTITLE4=Listen To The Footsteps
TTITLE5=Red Is The Apple
TTITLE6=Sit And Flatter Me
TTITLE7=Copper Kettles
TTITLE8=Come On Down
TTITLE9=Debbie
TTITLE10=The Chosen One
TTITLE11=I Can't Read My Name
EXTD=
EXTT0=
EXTT1=
EXTT2=
EXTT3=
EXTT4=
EXTT5=
EXTT6=
EXTT7=
EXTT8=
EXTT9=
EXTT10=
EXTT11=
PLAYORDER=
